<svg fill="none" height="38" viewBox="0 0 32 38" width="32" xmlns="http://www.w3.org/2000/svg"><path clip-rule="evenodd" d="m15.5016 37.1734c.203.1061.43.16.6571.1582.227-.0018.4521-.0575.657-.1654l6.5411-3.4966c1.8549-.9888 3.3075-2.0945 4.4408-3.3817 2.4639-2.8045 3.8094-6.3839 3.7855-10.0747l-.0776-12.17453c-.0073-1.40226-.9283-2.65351-2.2905-3.10835l-12.1686-4.082747c-.7327-.248093-1.5356-.242699-2.2554.012585l-12.12247 4.228362c-1.35473.47282-2.25912 1.73306-2.251737 3.13712l.077519 12.16556c.023994 3.6962 1.415638 7.2594 3.920238 10.0352 1.14433 1.2692 2.6098 2.3586 4.48502 3.3312zm-1.7316-14.3087c.2731.2625.6275.392.9819.3884.3544-.0018.7069-.1349.9764-.4009l7.1483-7.0473c.5371-.5304.5316-1.3825-.0111-1.9057-.5444-.5231-1.4211-.5195-1.9582.0108l-6.1757 6.0873-2.5286-2.4306c-.5445-.5232-1.4193-.5178-1.9583.0126-.53707.5303-.53153 1.3825.0129 1.9056z" fill="#fff" fill-rule="evenodd"/></svg>